<svg width="58" height="51" viewBox="0 0 58 51" fill="none" xmlns="http://www.w3.org/2000/svg">
<rect x="27.5312" y="6.78125" width="1.9375" height="17.0448" rx="0.813444" fill="white"/>
<rect x="19.7812" y="16.4688" width="1.9375" height="17.0448" rx="0.813444" transform="rotate(-90 19.7812 16.4688)" fill="white"/>
<path d="M6.156 50L5.481 48.488H2.25L1.575 50H0.567L3.357 43.7H4.428L7.209 50H6.156ZM3.375 45.932L2.664 47.552H5.067L4.338 45.896C4.17 45.524 4.011 45.128 3.861 44.708C3.783 44.93 3.702 45.143 3.618 45.347C3.54 45.551 3.459 45.746 3.375 45.932ZM11.9543 43.7C12.4943 43.7 12.9683 43.784 13.3763 43.952C13.7843 44.114 14.1263 44.342 14.4023 44.636C14.6783 44.924 14.8853 45.26 15.0233 45.644C15.1613 46.022 15.2303 46.424 15.2303 46.85C15.2303 47.426 15.1073 47.954 14.8613 48.434C14.6153 48.908 14.2493 49.289 13.7633 49.577C13.2773 49.859 12.6743 50 11.9543 50H9.08332V43.7H11.9543ZM11.9093 49.064C12.4493 49.064 12.8873 48.965 13.2233 48.767C13.5653 48.563 13.8143 48.296 13.9703 47.966C14.1323 47.63 14.2133 47.258 14.2133 46.85C14.2133 46.454 14.1323 46.088 13.9703 45.752C13.8143 45.416 13.5653 45.146 13.2233 44.942C12.8873 44.738 12.4493 44.636 11.9093 44.636H10.0553V49.064H11.9093ZM20.2424 43.7C20.7824 43.7 21.2564 43.784 21.6644 43.952C22.0724 44.114 22.4144 44.342 22.6904 44.636C22.9664 44.924 23.1734 45.26 23.3114 45.644C23.4494 46.022 23.5184 46.424 23.5184 46.85C23.5184 47.426 23.3954 47.954 23.1494 48.434C22.9034 48.908 22.5374 49.289 22.0514 49.577C21.5654 49.859 20.9624 50 20.2424 50H17.3714V43.7H20.2424ZM20.1974 49.064C20.7374 49.064 21.1754 48.965 21.5114 48.767C21.8534 48.563 22.1024 48.296 22.2584 47.966C22.4204 47.63 22.5014 47.258 22.5014 46.85C22.5014 46.454 22.4204 46.088 22.2584 45.752C22.1024 45.416 21.8534 45.146 21.5114 44.942C21.1754 44.738 20.7374 44.636 20.1974 44.636H18.3434V49.064H20.1974ZM30.6683 50V44.636H28.5443V43.7H33.8093V44.636H31.6403V50H30.6683ZM40.1521 50L39.4771 48.488H36.2461L35.5711 50H34.5631L37.3531 43.7H38.4241L41.2051 50H40.1521ZM37.3711 45.932L36.6601 47.552H39.0631L38.3341 45.896C38.1661 45.524 38.0071 45.128 37.8571 44.708C37.7791 44.93 37.6981 45.143 37.6141 45.347C37.5361 45.551 37.4551 45.746 37.3711 45.932ZM43.2504 48.074C43.5624 48.44 43.8864 48.722 44.2224 48.92C44.5644 49.118 44.9814 49.217 45.4734 49.217C45.7374 49.217 45.9894 49.184 46.2294 49.118C46.4754 49.046 46.6764 48.941 46.8324 48.803C46.9944 48.659 47.0754 48.482 47.0754 48.272C47.0754 47.972 46.9164 47.756 46.5984 47.624C46.2804 47.492 45.8334 47.384 45.2574 47.3C44.5494 47.192 43.9854 46.994 43.5654 46.706C43.1454 46.412 42.9354 45.986 42.9354 45.428C42.9354 45.05 43.0464 44.726 43.2684 44.456C43.4964 44.186 43.8024 43.979 44.1864 43.835C44.5704 43.685 44.9934 43.61 45.4554 43.61C46.0314 43.61 46.5294 43.706 46.9494 43.898C47.3694 44.09 47.6994 44.363 47.9394 44.717L47.2734 45.41C47.0754 45.134 46.8204 44.912 46.5084 44.744C46.1964 44.57 45.8364 44.483 45.4284 44.483C45.0084 44.483 44.6574 44.561 44.3754 44.717C44.0934 44.867 43.9524 45.08 43.9524 45.356C43.9524 45.68 44.1024 45.911 44.4024 46.049C44.7084 46.181 45.1074 46.286 45.5994 46.364C45.9234 46.412 46.2324 46.475 46.5264 46.553C46.8264 46.631 47.0934 46.736 47.3274 46.868C47.5614 46.994 47.7474 47.156 47.8854 47.354C48.0234 47.552 48.0924 47.798 48.0924 48.092C48.0924 48.494 47.9844 48.845 47.7684 49.145C47.5524 49.445 47.2434 49.679 46.8414 49.847C46.4454 50.009 45.9744 50.09 45.4284 50.09C44.8464 50.09 44.3214 49.994 43.8534 49.802C43.3854 49.61 42.9744 49.298 42.6204 48.866L43.2504 48.074ZM51.2321 50H50.2601V43.7H51.2321V46.967L52.6361 45.779L55.0391 43.7H56.4071L53.3831 46.265L56.3531 50H55.0931L52.6541 46.886L51.2321 48.101V50Z" fill="white"/>
<circle cx="28.5" cy="15.5" r="14.5312" stroke="white" stroke-width="1.9375"/>
</svg>
