<svg width="34" height="57" viewBox="0 0 34 57" fill="none" xmlns="http://www.w3.org/2000/svg">
<rect x="5.46973" y="18.9963" width="1.62611" height="20.6061" rx="0.813055" fill="white"/>
<rect x="5.46973" y="18.9963" width="1.38" height="20.6061" rx="0.69" fill="white"/>
<rect width="1.72786" height="20.4118" rx="0.863932" transform="matrix(0.703549 0.710647 -0.703549 0.710647 15.8262 8.36072)" fill="white"/>
<rect width="1.38" height="20.4118" rx="0.69" transform="matrix(0.703549 0.710647 -0.703549 0.710647 15.8262 8.36072)" fill="white"/>
<rect width="1.72786" height="20.4118" rx="0.863932" transform="matrix(0.703549 -0.710647 0.703549 0.710647 14.623 9.5423)" fill="white"/>
<rect width="1.38" height="20.4118" rx="0.69" transform="matrix(0.703549 -0.710647 0.703549 0.710647 14.623 9.5423)" fill="white"/>
<rect x="24.5398" y="18.9963" width="1.38" height="20.6061" rx="0.69" fill="white"/>
<rect x="5.76538" y="39.6024" width="1.38" height="20.2525" rx="0.69" transform="rotate(-90 5.76538 39.6024)" fill="white"/>
<rect x="11.5308" y="27.6569" width="1.04524" height="9.01752" rx="0.522619" transform="rotate(-90 11.5308 27.6569)" fill="#7A8A6F"/>
<rect x="11.5308" y="27.6569" width="1.04524" height="9.01752" rx="0.522619" transform="rotate(-90 11.5308 27.6569)" fill="white"/>
<rect x="5.46973" y="12.7249" width="1.62611" height="7.16734" rx="0.813055" fill="white"/>
<rect x="5.46973" y="12.7249" width="1.38" height="7.16734" rx="0.69" fill="white"/>
<path d="M8.8598 6.15202C8.68659 5.97928 8.48061 5.84215 8.2537 5.74851C8.02679 5.65487 7.78343 5.60657 7.53761 5.60638C7.07263 5.60646 6.62464 5.77943 6.28232 6.09105C5.94004 5.77938 5.49202 5.6064 5.02704 5.60638C4.78093 5.60664 4.53729 5.65509 4.31016 5.74894C4.08303 5.8428 3.87688 5.98021 3.70359 6.15327C2.96443 6.88836 2.96474 8.03812 3.70422 8.77009L6.28232 11.3231L8.86043 8.77009C9.5999 8.03812 9.60022 6.88836 8.8598 6.15202Z" fill="#8D2C19"/>
<path d="M8.8598 6.15202C8.68659 5.97928 8.48061 5.84215 8.2537 5.74851C8.02679 5.65487 7.78343 5.60657 7.53761 5.60638C7.07263 5.60646 6.62464 5.77943 6.28232 6.09105C5.94004 5.77938 5.49202 5.6064 5.02704 5.60638C4.78093 5.60664 4.53729 5.65509 4.31016 5.74894C4.08303 5.8428 3.87688 5.98021 3.70359 6.15327C2.96443 6.88836 2.96474 8.03812 3.70422 8.77009L6.28232 11.3231L8.86043 8.77009C9.5999 8.03812 9.60022 6.88836 8.8598 6.15202Z" fill="white"/>
<path d="M2.277 49.7V52.409H6.12V49.7H7.092V56H6.12V53.345H2.277V56H1.305V49.7H2.277ZM16.2056 52.85C16.2056 53.306 16.1186 53.732 15.9446 54.128C15.7766 54.518 15.5366 54.86 15.2246 55.154C14.9126 55.448 14.5436 55.679 14.1176 55.847C13.6916 56.009 13.2266 56.09 12.7226 56.09C12.2066 56.09 11.7356 56.009 11.3096 55.847C10.8836 55.679 10.5146 55.448 10.2026 55.154C9.89655 54.86 9.65655 54.518 9.48255 54.128C9.31455 53.732 9.23055 53.306 9.23055 52.85C9.23055 52.394 9.31455 51.971 9.48255 51.581C9.65655 51.185 9.89655 50.84 10.2026 50.546C10.5146 50.252 10.8836 50.024 11.3096 49.862C11.7356 49.694 12.2066 49.61 12.7226 49.61C13.2266 49.61 13.6916 49.694 14.1176 49.862C14.5436 50.024 14.9126 50.252 15.2246 50.546C15.5366 50.84 15.7766 51.185 15.9446 51.581C16.1186 51.971 16.2056 52.394 16.2056 52.85ZM15.2156 52.85C15.2156 52.412 15.1076 52.022 14.8916 51.68C14.6816 51.332 14.3876 51.059 14.0096 50.861C13.6376 50.657 13.2086 50.555 12.7226 50.555C12.2246 50.555 11.7866 50.657 11.4086 50.861C11.0366 51.059 10.7456 51.332 10.5356 51.68C10.3256 52.022 10.2206 52.412 10.2206 52.85C10.2206 53.288 10.3256 53.681 10.5356 54.029C10.7456 54.371 11.0366 54.644 11.4086 54.848C11.7866 55.046 12.2246 55.145 12.7226 55.145C13.2086 55.145 13.6376 55.046 14.0096 54.848C14.3876 54.644 14.6816 54.368 14.8916 54.02C15.1076 53.672 15.2156 53.282 15.2156 52.85ZM19.301 49.7L21.722 53.057L24.152 49.7H25.088V56H24.116V53.363C24.116 52.979 24.122 52.616 24.134 52.274C24.146 51.926 24.173 51.578 24.215 51.23L22.001 54.191H21.407L19.22 51.239C19.262 51.581 19.289 51.926 19.301 52.274C19.313 52.616 19.319 52.979 19.319 53.363V56H18.347V49.7H19.301ZM27.6986 49.7H32.3696V50.636H28.6706V52.301H31.8746V53.237H28.6706V55.064H32.3696V56H27.6986V49.7Z" fill="white"/>
</svg>
