<svg width="79" height="51" viewBox="0 0 79 51" fill="none" xmlns="http://www.w3.org/2000/svg">
<circle cx="50.3637" cy="15.8162" r="2.00239" stroke="white" stroke-width="2"/>
<circle cx="30.7062" cy="9.70622" r="1.70622" stroke="white" stroke-width="2"/>
<path fill-rule="evenodd" clip-rule="evenodd" d="M38 33.49C37.9992 28.0427 37.0254 23.207 35.5327 19.8075C34.7848 18.1041 33.9459 16.8509 33.1157 16.0512C32.2953 15.2609 31.5835 15 31 15C30.4165 15 29.7047 15.2609 28.8843 16.0512C28.0541 16.8509 27.2152 18.1041 26.4673 19.8075C24.9746 23.207 24.0008 28.0427 24 33.49H22C22.0016 22.1731 26.0304 13 31 13C35.9696 13 39.9984 22.1731 40 33.49H38Z" fill="white"/>
<path fill-rule="evenodd" clip-rule="evenodd" d="M56.6668 33.1674C56.2623 31.516 55.7791 30.013 55.2351 28.6936C54.4145 26.7038 53.4954 25.2295 52.5832 24.2868C51.6754 23.3488 50.9127 23.067 50.324 23.0722C49.7352 23.0773 48.9776 23.3722 48.0863 24.3259C47.1906 25.2843 46.2972 26.7744 45.5114 28.7781C44.9904 30.1068 44.5335 31.618 44.1577 33.2762L42.1057 33.294C43.6648 26.0331 46.7341 21.1033 50.3066 21.0722C53.8791 21.0412 57.0337 25.9169 58.7188 33.1495L56.6668 33.1674Z" fill="white"/>
<path fill-rule="evenodd" clip-rule="evenodd" d="M50.0144 14.2439C49.6761 13.3194 49.2544 12.4892 48.7725 11.7775C47.4878 9.88007 45.9237 9 44.4521 9C42.9804 9 41.4164 9.88007 40.1316 11.7775C38.8546 13.6636 38 16.3819 38 19.4829L38.0002 19.5574H36.0001L36 19.4829C36 12.5888 39.7841 7 44.4521 7C47.8531 7 50.785 9.96689 52.1259 14.2439H50.0144Z" fill="white"/>
<path d="M7.812 46.85C7.812 47.306 7.725 47.732 7.551 48.128C7.383 48.518 7.143 48.86 6.831 49.154C6.519 49.448 6.15 49.679 5.724 49.847C5.298 50.009 4.833 50.09 4.329 50.09C3.813 50.09 3.342 50.009 2.916 49.847C2.49 49.679 2.121 49.448 1.809 49.154C1.503 48.86 1.263 48.518 1.089 48.128C0.921 47.732 0.837 47.306 0.837 46.85C0.837 46.394 0.921 45.971 1.089 45.581C1.263 45.185 1.503 44.84 1.809 44.546C2.121 44.252 2.49 44.024 2.916 43.862C3.342 43.694 3.813 43.61 4.329 43.61C4.833 43.61 5.298 43.694 5.724 43.862C6.15 44.024 6.519 44.252 6.831 44.546C7.143 44.84 7.383 45.185 7.551 45.581C7.725 45.971 7.812 46.394 7.812 46.85ZM6.822 46.85C6.822 46.412 6.714 46.022 6.498 45.68C6.288 45.332 5.994 45.059 5.616 44.861C5.244 44.657 4.815 44.555 4.329 44.555C3.831 44.555 3.393 44.657 3.015 44.861C2.643 45.059 2.352 45.332 2.142 45.68C1.932 46.022 1.827 46.412 1.827 46.85C1.827 47.288 1.932 47.681 2.142 48.029C2.352 48.371 2.643 48.644 3.015 48.848C3.393 49.046 3.831 49.145 4.329 49.145C4.815 49.145 5.244 49.046 5.616 48.848C5.994 48.644 6.288 48.368 6.498 48.02C6.714 47.672 6.822 47.282 6.822 46.85ZM11.139 50V44.636H9.01498V43.7H14.28V44.636H12.111V50H11.139ZM17.192 43.7V46.409H21.035V43.7H22.007V50H21.035V47.345H17.192V50H16.22V43.7H17.192ZM24.6136 43.7H29.2846V44.636H25.5856V46.301H28.7896V47.237H25.5856V49.064H29.2846V50H24.6136V43.7ZM36.9626 45.671C36.9626 46.085 36.8336 46.463 36.5756 46.805C36.3176 47.141 35.9906 47.381 35.5946 47.525L37.2776 50.009L36.0806 50L34.5056 47.66H32.6696V50H31.6976V43.7H34.9376C35.2916 43.7 35.6216 43.784 35.9276 43.952C36.2336 44.12 36.4826 44.351 36.6746 44.645C36.8666 44.939 36.9626 45.281 36.9626 45.671ZM34.7126 44.636H32.6696V46.724H34.8296C35.0396 46.724 35.2286 46.676 35.3966 46.58C35.5646 46.478 35.6966 46.346 35.7926 46.184C35.8946 46.022 35.9456 45.848 35.9456 45.662C35.9456 45.464 35.8886 45.287 35.7746 45.131C35.6606 44.975 35.5106 44.855 35.3246 44.771C35.1386 44.681 34.9346 44.636 34.7126 44.636ZM44.555 50V44.636H42.431V43.7H47.696V44.636H45.527V50H44.555ZM54.0388 50L53.3638 48.488H50.1328L49.4578 50H48.4498L51.2398 43.7H52.3108L55.0918 50H54.0388ZM51.2578 45.932L50.5468 47.552H52.9498L52.2208 45.896C52.0528 45.524 51.8938 45.128 51.7438 44.708C51.6658 44.93 51.5848 45.143 51.5008 45.347C51.4228 45.551 51.3418 45.746 51.2578 45.932ZM57.1371 48.074C57.4491 48.44 57.7731 48.722 58.1091 48.92C58.4511 49.118 58.8681 49.217 59.3601 49.217C59.6241 49.217 59.8761 49.184 60.1161 49.118C60.3621 49.046 60.5631 48.941 60.7191 48.803C60.8811 48.659 60.9621 48.482 60.9621 48.272C60.9621 47.972 60.8031 47.756 60.4851 47.624C60.1671 47.492 59.7201 47.384 59.1441 47.3C58.4361 47.192 57.8721 46.994 57.4521 46.706C57.0321 46.412 56.8221 45.986 56.8221 45.428C56.8221 45.05 56.9331 44.726 57.1551 44.456C57.3831 44.186 57.6891 43.979 58.0731 43.835C58.4571 43.685 58.8801 43.61 59.3421 43.61C59.9181 43.61 60.4161 43.706 60.8361 43.898C61.2561 44.09 61.5861 44.363 61.8261 44.717L61.1601 45.41C60.9621 45.134 60.7071 44.912 60.3951 44.744C60.0831 44.57 59.7231 44.483 59.3151 44.483C58.8951 44.483 58.5441 44.561 58.2621 44.717C57.9801 44.867 57.8391 45.08 57.8391 45.356C57.8391 45.68 57.9891 45.911 58.2891 46.049C58.5951 46.181 58.9941 46.286 59.4861 46.364C59.8101 46.412 60.1191 46.475 60.4131 46.553C60.7131 46.631 60.9801 46.736 61.2141 46.868C61.4481 46.994 61.6341 47.156 61.7721 47.354C61.9101 47.552 61.9791 47.798 61.9791 48.092C61.9791 48.494 61.8711 48.845 61.6551 49.145C61.4391 49.445 61.1301 49.679 60.7281 49.847C60.3321 50.009 59.8611 50.09 59.3151 50.09C58.7331 50.09 58.2081 49.994 57.7401 49.802C57.2721 49.61 56.8611 49.298 56.5071 48.866L57.1371 48.074ZM65.1188 50H64.1468V43.7H65.1188V46.967L66.5228 45.779L68.9258 43.7H70.2938L67.2698 46.265L70.2398 50H68.9798L66.5408 46.886L65.1188 48.101V50ZM72.5268 48.074C72.8388 48.44 73.1628 48.722 73.4988 48.92C73.8408 49.118 74.2578 49.217 74.7498 49.217C75.0138 49.217 75.2658 49.184 75.5058 49.118C75.7518 49.046 75.9528 48.941 76.1088 48.803C76.2708 48.659 76.3518 48.482 76.3518 48.272C76.3518 47.972 76.1928 47.756 75.8748 47.624C75.5568 47.492 75.1098 47.384 74.5338 47.3C73.8258 47.192 73.2618 46.994 72.8418 46.706C72.4218 46.412 72.2118 45.986 72.2118 45.428C72.2118 45.05 72.3228 44.726 72.5448 44.456C72.7728 44.186 73.0788 43.979 73.4628 43.835C73.8468 43.685 74.2698 43.61 74.7318 43.61C75.3078 43.61 75.8058 43.706 76.2258 43.898C76.6458 44.09 76.9758 44.363 77.2158 44.717L76.5498 45.41C76.3518 45.134 76.0968 44.912 75.7848 44.744C75.4728 44.57 75.1128 44.483 74.7048 44.483C74.2848 44.483 73.9338 44.561 73.6518 44.717C73.3698 44.867 73.2288 45.08 73.2288 45.356C73.2288 45.68 73.3788 45.911 73.6788 46.049C73.9848 46.181 74.3838 46.286 74.8758 46.364C75.1998 46.412 75.5088 46.475 75.8028 46.553C76.1028 46.631 76.3698 46.736 76.6038 46.868C76.8378 46.994 77.0238 47.156 77.1618 47.354C77.2998 47.552 77.3688 47.798 77.3688 48.092C77.3688 48.494 77.2608 48.845 77.0448 49.145C76.8288 49.445 76.5198 49.679 76.1178 49.847C75.7218 50.009 75.2508 50.09 74.7048 50.09C74.1228 50.09 73.5978 49.994 73.1298 49.802C72.6618 49.61 72.2508 49.298 71.8968 48.866L72.5268 48.074Z" fill="white"/>
<circle cx="44.0105" cy="3.01051" r="2.01051" stroke="white" stroke-width="2"/>
</svg>
