<svg width="57" height="50" viewBox="0 0 57 50" fill="none" xmlns="http://www.w3.org/2000/svg">
<path d="M6.57 44.671C6.57 45.085 6.441 45.463 6.183 45.805C5.925 46.141 5.598 46.381 5.202 46.525L6.885 49.009L5.688 49L4.113 46.66H2.277V49H1.305V42.7H4.545C4.899 42.7 5.229 42.784 5.535 42.952C5.841 43.12 6.09 43.351 6.282 43.645C6.474 43.939 6.57 44.281 6.57 44.671ZM4.32 43.636H2.277V45.724H4.437C4.647 45.724 4.836 45.676 5.004 45.58C5.172 45.478 5.304 45.346 5.4 45.184C5.502 45.022 5.553 44.848 5.553 44.662C5.553 44.464 5.496 44.287 5.382 44.131C5.268 43.975 5.118 43.855 4.932 43.771C4.746 43.681 4.542 43.636 4.32 43.636ZM9.15363 42.7H13.8246V43.636H10.1256V45.301H13.3296V46.237H10.1256V48.064H13.8246V49H9.15363V42.7ZM24.7516 42.7L22.4116 49H21.7366L20.0536 45.067L18.3796 49H17.6776L15.4906 42.7H16.5436L17.8306 46.507C17.8846 46.669 17.9356 46.837 17.9836 47.011C18.0316 47.179 18.0766 47.341 18.1186 47.497C18.1726 47.341 18.2296 47.179 18.2896 47.011C18.3556 46.837 18.4246 46.666 18.4966 46.498L19.6396 43.789H20.5486L21.6646 46.489C21.8086 46.843 21.9316 47.17 22.0336 47.47C22.0756 47.314 22.1236 47.152 22.1776 46.984C22.2316 46.81 22.2886 46.636 22.3486 46.462L23.7076 42.7H24.7516ZM31.1081 49L30.4331 47.488H27.2021L26.5271 49H25.5191L28.3091 42.7H29.3801L32.1611 49H31.1081ZM28.3271 44.932L27.6161 46.552H30.0191L29.2901 44.896C29.1221 44.524 28.9631 44.128 28.8131 43.708C28.7351 43.93 28.6541 44.143 28.5701 44.347C28.4921 44.551 28.4111 44.746 28.3271 44.932ZM39.3005 44.671C39.3005 45.085 39.1715 45.463 38.9135 45.805C38.6555 46.141 38.3285 46.381 37.9325 46.525L39.6155 49.009L38.4185 49L36.8435 46.66H35.0075V49H34.0355V42.7H37.2755C37.6295 42.7 37.9595 42.784 38.2655 42.952C38.5715 43.12 38.8205 43.351 39.0125 43.645C39.2045 43.939 39.3005 44.281 39.3005 44.671ZM37.0505 43.636H35.0075V45.724H37.1675C37.3775 45.724 37.5665 45.676 37.7345 45.58C37.9025 45.478 38.0345 45.346 38.1305 45.184C38.2325 45.022 38.2835 44.848 38.2835 44.662C38.2835 44.464 38.2265 44.287 38.1125 44.131C37.9985 43.975 37.8485 43.855 37.6625 43.771C37.4765 43.681 37.2725 43.636 37.0505 43.636ZM44.7551 42.7C45.2951 42.7 45.7691 42.784 46.1771 42.952C46.5851 43.114 46.9271 43.342 47.2031 43.636C47.4791 43.924 47.6861 44.26 47.8241 44.644C47.9621 45.022 48.0311 45.424 48.0311 45.85C48.0311 46.426 47.9081 46.954 47.6621 47.434C47.4161 47.908 47.0501 48.289 46.5641 48.577C46.0781 48.859 45.4751 49 44.7551 49H41.8841V42.7H44.7551ZM44.7101 48.064C45.2501 48.064 45.6881 47.965 46.0241 47.767C46.3661 47.563 46.6151 47.296 46.7711 46.966C46.9331 46.63 47.0141 46.258 47.0141 45.85C47.0141 45.454 46.9331 45.088 46.7711 44.752C46.6151 44.416 46.3661 44.146 46.0241 43.942C45.6881 43.738 45.2501 43.636 44.7101 43.636H42.8561V48.064H44.7101ZM50.3432 47.074C50.6552 47.44 50.9792 47.722 51.3152 47.92C51.6572 48.118 52.0742 48.217 52.5662 48.217C52.8302 48.217 53.0822 48.184 53.3222 48.118C53.5682 48.046 53.7692 47.941 53.9252 47.803C54.0872 47.659 54.1682 47.482 54.1682 47.272C54.1682 46.972 54.0092 46.756 53.6912 46.624C53.3732 46.492 52.9262 46.384 52.3502 46.3C51.6422 46.192 51.0782 45.994 50.6582 45.706C50.2382 45.412 50.0282 44.986 50.0282 44.428C50.0282 44.05 50.1392 43.726 50.3612 43.456C50.5892 43.186 50.8952 42.979 51.2792 42.835C51.6632 42.685 52.0862 42.61 52.5482 42.61C53.1242 42.61 53.6222 42.706 54.0422 42.898C54.4622 43.09 54.7922 43.363 55.0322 43.717L54.3662 44.41C54.1682 44.134 53.9132 43.912 53.6012 43.744C53.2892 43.57 52.9292 43.483 52.5212 43.483C52.1012 43.483 51.7502 43.561 51.4682 43.717C51.1862 43.867 51.0452 44.08 51.0452 44.356C51.0452 44.68 51.1952 44.911 51.4952 45.049C51.8012 45.181 52.2002 45.286 52.6922 45.364C53.0162 45.412 53.3252 45.475 53.6192 45.553C53.9192 45.631 54.1862 45.736 54.4202 45.868C54.6542 45.994 54.8402 46.156 54.9782 46.354C55.1162 46.552 55.1852 46.798 55.1852 47.092C55.1852 47.494 55.0772 47.845 54.8612 48.145C54.6452 48.445 54.3362 48.679 53.9342 48.847C53.5382 49.009 53.0672 49.09 52.5212 49.09C51.9392 49.09 51.4142 48.994 50.9462 48.802C50.4782 48.61 50.0672 48.298 49.7132 47.866L50.3432 47.074Z" fill="white"/>
<path d="M30.907 3.04651L28.8139 2L26.3721 3.04651L23.5814 3.39535L21.8372 5.83721L19.7442 7.23255L19.3953 10.0232L18 12.4651L19.3953 15.2558L19.7442 17.6977L21.8372 19.4418L23.5814 21.5349L26.3721 21.8837L28.8139 22.9302L31.6046 21.8837L34.3953 21.5349L35.7907 19.4418L38.2325 17.6977V14.907L39.6279 12.4651L38.2325 10.0232V7.23255L35.4418 5.48837L34.0465 3.04651H30.907Z" stroke="white" stroke-width="2"/>
<path d="M22.8935 25.0233L22.5347 31.6678L28.6343 27.6811L35.0928 32L34.734 25.0233" stroke="white" stroke-width="2"/>
</svg>
